<svg width="223" height="45" viewBox="0 0 223 45" fill="none" xmlns="http://www.w3.org/2000/svg">
<rect width="223" height="44.4706" fill="#121933"/>
<path d="M9.41179 7.76465H14.1177V44.4705L9.41179 40.2352V7.76465Z" fill="#FB7C46"/>
<path d="M30.5882 7.76465H25.8823V44.4705L30.5882 40.2352V7.76465Z" fill="#FB7C46"/>
<path d="M0 0H40V12.9412L35.2941 16.9412V4.70588H4.47059V16.9412L0 12.9412V0Z" fill="white"/>
<path d="M17.4118 15.5293H22.1177V33.8822L19.7647 36.9411L17.4118 33.8822V15.5293Z" fill="white"/>
<rect width="175" height="24" transform="translate(48 10.2354)" fill="#121933"/>
<path d="M49.752 30.2354V13.4354H52.344V20.6354H59.4V13.4354H61.992V30.2354H59.4V22.9874H52.344V30.2354H49.752ZM70.998 30.5714C69.798 30.5714 68.75 30.3234 67.854 29.8274C66.958 29.3154 66.254 28.6034 65.742 27.6914C65.246 26.7634 64.998 25.6914 64.998 24.4754V24.1874C64.998 22.9554 65.246 21.8834 65.742 20.9714C66.238 20.0434 66.926 19.3314 67.806 18.8354C68.702 18.3234 69.734 18.0674 70.902 18.0674C72.038 18.0674 73.03 18.3234 73.878 18.8354C74.742 19.3314 75.414 20.0274 75.894 20.9234C76.374 21.8194 76.614 22.8674 76.614 24.0674V25.0034H67.518C67.55 26.0434 67.894 26.8754 68.55 27.4994C69.222 28.1074 70.054 28.4114 71.046 28.4114C71.974 28.4114 72.67 28.2034 73.134 27.7874C73.614 27.3714 73.982 26.8914 74.238 26.3474L76.278 27.4034C76.054 27.8514 75.726 28.3234 75.294 28.8194C74.878 29.3154 74.326 29.7314 73.638 30.0674C72.95 30.4034 72.07 30.5714 70.998 30.5714ZM67.542 23.1074H74.094C74.03 22.2114 73.71 21.5154 73.134 21.0194C72.558 20.5074 71.806 20.2514 70.878 20.2514C69.95 20.2514 69.19 20.5074 68.598 21.0194C68.022 21.5154 67.67 22.2114 67.542 23.1074ZM81.9038 30.2354L77.9198 18.4034H80.5358L83.6797 28.4114H84.0638L87.2078 18.4034H89.8238L85.8398 30.2354H81.9038ZM92.2224 30.2354V18.4034H94.6464V19.7954H95.0304C95.2224 19.2994 95.5264 18.9394 95.9424 18.7154C96.3744 18.4754 96.9024 18.3554 97.5264 18.3554H98.9424V20.5874H97.4304C96.6304 20.5874 95.9744 20.8114 95.4624 21.2594C94.9504 21.6914 94.6944 22.3634 94.6944 23.2754V30.2354H92.2224ZM101.504 30.2354V18.4034H103.976V30.2354H101.504ZM102.752 16.7954C102.272 16.7954 101.864 16.6434 101.528 16.3394C101.208 16.0194 101.048 15.6114 101.048 15.1154C101.048 14.6194 101.208 14.2194 101.528 13.9154C101.864 13.5954 102.272 13.4354 102.752 13.4354C103.248 13.4354 103.656 13.5954 103.976 13.9154C104.296 14.2194 104.456 14.6194 104.456 15.1154C104.456 15.6114 104.296 16.0194 103.976 16.3394C103.656 16.6434 103.248 16.7954 102.752 16.7954ZM107.644 30.2354V18.4034H110.068V20.1794H110.452C110.676 19.6994 111.076 19.2514 111.652 18.8354C112.228 18.4194 113.084 18.2114 114.22 18.2114C115.116 18.2114 115.908 18.4114 116.596 18.8114C117.3 19.2114 117.852 19.7794 118.252 20.5154C118.652 21.2354 118.852 22.1074 118.852 23.1314V30.2354H116.38V23.3234C116.38 22.2994 116.124 21.5474 115.612 21.0674C115.1 20.5714 114.396 20.3234 113.5 20.3234C112.476 20.3234 111.652 20.6594 111.028 21.3314C110.42 22.0034 110.116 22.9794 110.116 24.2594V30.2354H107.644ZM127.258 30.5714C125.754 30.5714 124.506 30.2354 123.514 29.5634C122.522 28.8914 121.914 27.8754 121.69 26.5154L123.994 25.9634C124.122 26.6194 124.338 27.1394 124.642 27.5234C124.946 27.9074 125.322 28.1794 125.77 28.3394C126.234 28.4994 126.73 28.5794 127.258 28.5794C128.042 28.5794 128.642 28.4274 129.058 28.1234C129.49 27.8194 129.706 27.4274 129.706 26.9474C129.706 26.4674 129.506 26.1154 129.106 25.8914C128.706 25.6674 128.114 25.4834 127.33 25.3394L126.514 25.1954C125.714 25.0514 124.986 24.8434 124.33 24.5714C123.674 24.2994 123.154 23.9234 122.77 23.4434C122.386 22.9634 122.194 22.3474 122.194 21.5954C122.194 20.4754 122.61 19.6114 123.442 19.0034C124.274 18.3794 125.378 18.0674 126.754 18.0674C128.082 18.0674 129.17 18.3714 130.018 18.9794C130.882 19.5714 131.442 20.3794 131.698 21.4034L129.394 22.0514C129.25 21.3314 128.946 20.8274 128.482 20.5394C128.018 20.2354 127.442 20.0834 126.754 20.0834C126.082 20.0834 125.554 20.2114 125.17 20.4674C124.786 20.7074 124.594 21.0514 124.594 21.4994C124.594 21.9794 124.778 22.3314 125.146 22.5554C125.53 22.7794 126.042 22.9474 126.682 23.0594L127.522 23.2034C128.37 23.3474 129.146 23.5474 129.85 23.8034C130.554 24.0594 131.106 24.4274 131.506 24.9074C131.922 25.3874 132.13 26.0274 132.13 26.8274C132.13 28.0114 131.69 28.9314 130.81 29.5874C129.93 30.2434 128.746 30.5714 127.258 30.5714ZM139.202 30.2354C138.482 30.2354 137.906 30.0194 137.474 29.5874C137.058 29.1554 136.85 28.5794 136.85 27.8594V20.4914H133.586V18.4034H136.85V14.4914H139.322V18.4034H142.85V20.4914H139.322V27.4274C139.322 27.9074 139.546 28.1474 139.993 28.1474H142.466V30.2354H139.202ZM145.754 30.2354V18.4034H148.226V30.2354H145.754ZM147.002 16.7954C146.522 16.7954 146.114 16.6434 145.778 16.3394C145.458 16.0194 145.298 15.6114 145.298 15.1154C145.298 14.6194 145.458 14.2194 145.778 13.9154C146.114 13.5954 146.522 13.4354 147.002 13.4354C147.498 13.4354 147.906 13.5954 148.226 13.9154C148.546 14.2194 148.706 14.6194 148.706 15.1154C148.706 15.6114 148.546 16.0194 148.226 16.3394C147.906 16.6434 147.498 16.7954 147.002 16.7954ZM156.334 30.2354C155.614 30.2354 155.038 30.0194 154.606 29.5874C154.19 29.1554 153.982 28.5794 153.982 27.8594V20.4914H150.718V18.4034H153.982V14.4914H156.454V18.4034H159.982V20.4914H156.454V27.4274C156.454 27.9074 156.678 28.1474 157.126 28.1474H159.598V30.2354H156.334ZM167.423 30.4514C166.527 30.4514 165.727 30.2514 165.023 29.8514C164.319 29.4514 163.767 28.8834 163.367 28.1474C162.967 27.4114 162.767 26.5314 162.767 25.5074V18.4034H165.239V25.3394C165.239 26.3634 165.495 27.1234 166.007 27.6194C166.519 28.0994 167.231 28.3394 168.143 28.3394C169.151 28.3394 169.959 28.0034 170.567 27.3314C171.191 26.6434 171.503 25.6594 171.503 24.3794V18.4034H173.975V30.2354H171.551V28.4594H171.167C170.943 28.9394 170.543 29.3954 169.967 29.8274C169.391 30.2434 168.543 30.4514 167.423 30.4514ZM182.069 30.2354C181.349 30.2354 180.773 30.0194 180.341 29.5874C179.925 29.1554 179.717 28.5794 179.717 27.8594V20.4914H176.453V18.4034H179.717V14.4914H182.189V18.4034H185.717V20.4914H182.189V27.4274C182.189 27.9074 182.413 28.1474 182.861 28.1474H185.333V30.2354H182.069ZM188.621 30.2354V18.4034H191.093V30.2354H188.621ZM189.869 16.7954C189.389 16.7954 188.981 16.6434 188.645 16.3394C188.325 16.0194 188.165 15.6114 188.165 15.1154C188.165 14.6194 188.325 14.2194 188.645 13.9154C188.981 13.5954 189.389 13.4354 189.869 13.4354C190.365 13.4354 190.773 13.5954 191.093 13.9154C191.413 14.2194 191.573 14.6194 191.573 15.1154C191.573 15.6114 191.413 16.0194 191.093 16.3394C190.773 16.6434 190.365 16.7954 189.869 16.7954ZM200.306 30.5714C199.122 30.5714 198.066 30.3314 197.138 29.8514C196.226 29.3554 195.506 28.6514 194.978 27.7394C194.45 26.8274 194.186 25.7474 194.186 24.4994V24.1394C194.186 22.8914 194.45 21.8194 194.978 20.9234C195.506 20.0114 196.226 19.3074 197.138 18.8114C198.066 18.3154 199.122 18.0674 200.306 18.0674C201.49 18.0674 202.546 18.3154 203.474 18.8114C204.402 19.3074 205.13 20.0114 205.658 20.9234C206.186 21.8194 206.45 22.8914 206.45 24.1394V24.4994C206.45 25.7474 206.186 26.8274 205.658 27.7394C205.13 28.6514 204.402 29.3554 203.474 29.8514C202.546 30.3314 201.49 30.5714 200.306 30.5714ZM200.306 28.3634C201.394 28.3634 202.274 28.0194 202.946 27.3314C203.634 26.6274 203.978 25.6594 203.978 24.4274V24.2114C203.978 22.9794 203.642 22.0194 202.97 21.3314C202.298 20.6274 201.41 20.2754 200.306 20.2754C199.234 20.2754 198.354 20.6274 197.666 21.3314C196.994 22.0194 196.658 22.9794 196.658 24.2114V24.4274C196.658 25.6594 196.994 26.6274 197.666 27.3314C198.354 28.0194 199.234 28.3634 200.306 28.3634ZM209.527 30.2354V18.4034H211.951V20.1794H212.335C212.559 19.6994 212.959 19.2514 213.535 18.8354C214.111 18.4194 214.967 18.2114 216.103 18.2114C216.999 18.2114 217.791 18.4114 218.479 18.8114C219.183 19.2114 219.735 19.7794 220.135 20.5154C220.535 21.2354 220.735 22.1074 220.735 23.1314V30.2354H218.263V23.3234C218.263 22.2994 218.007 21.5474 217.495 21.0674C216.983 20.5714 216.279 20.3234 215.383 20.3234C214.359 20.3234 213.535 20.6594 212.911 21.3314C212.303 22.0034 211.999 22.9794 211.999 24.2594V30.2354H209.527Z" fill="white"/>
</svg>
