<svg width="65" height="64" viewBox="0 0 65 64" fill="none" xmlns="http://www.w3.org/2000/svg">
<rect x="0.5" width="64" height="64" rx="8" fill="#FEE5DA"/>
<path d="M36.5349 19.8376L35.9382 19.3832V19.3832L36.5349 19.8376ZM31.4651 19.8376L30.8684 20.2919V20.2919L31.4651 19.8376ZM25.5732 21.5733L25.6593 20.8283C25.4318 20.802 25.2048 20.8811 25.0429 21.043C24.8809 21.2049 24.8019 21.4319 24.8282 21.6594L25.5732 21.5733ZM23.8376 28.4651L23.3832 29.0618H23.3832L23.8376 28.4651ZM23.8376 33.5349L24.2919 34.1317L24.2919 34.1316L23.8376 33.5349ZM24.9689 40.5008L24.231 40.3669C24.1942 40.5697 24.2424 40.7786 24.3644 40.9447C24.4863 41.1108 24.6713 41.2194 24.8757 41.245L24.9689 40.5008ZM31.4652 38.8377L30.8685 39.292L30.8685 39.292L31.4652 38.8377ZM36.5351 38.8377L35.9384 38.3833L35.9384 38.3833L36.5351 38.8377ZM44.0501 40.0496L44.1787 40.7885C44.4906 40.7342 44.7348 40.49 44.789 40.1782L44.0501 40.0496ZM42.8378 33.535L43.2921 34.1317L43.2921 34.1317L42.8378 33.535ZM42.8377 28.4651L42.3834 29.0618L42.8377 28.4651ZM44.5015 20.9693L45.2457 20.8761C45.2201 20.6717 45.1115 20.4867 44.9454 20.3648C44.7793 20.2428 44.5704 20.1946 44.3676 20.2313L44.5015 20.9693ZM44.9945 28.1157L45.7444 28.1055L44.9945 28.1157ZM31.1241 40.973L31.1025 41.7226L31.1241 40.973ZM25.9935 28.1164L25.2436 28.1265L25.9935 28.1164ZM36.8137 21.8881L36.7697 21.1394L36.8137 21.8881ZM44.8262 33.7598L45.5741 33.8148L44.8262 33.7598ZM35.9382 19.3832C35.6292 19.7891 35.25 20.385 35.25 21.1159H36.75C36.75 20.8998 36.8669 20.6396 37.1317 20.2919L35.9382 19.3832ZM36.25 18.5C36.25 18.8127 36.1429 19.1144 35.9382 19.3832L37.1316 20.2919C37.516 19.7872 37.75 19.1713 37.75 18.5H36.25ZM34 16.75C35.3765 16.75 36.25 17.6557 36.25 18.5H37.75C37.75 16.5828 35.9372 15.25 34 15.25V16.75ZM31.75 18.5C31.75 17.6557 32.6235 16.75 34 16.75V15.25C32.0628 15.25 30.25 16.5828 30.25 18.5H31.75ZM32.0618 19.3832C31.8571 19.1144 31.75 18.8127 31.75 18.5H30.25C30.25 19.1713 30.484 19.7872 30.8684 20.2919L32.0618 19.3832ZM32.75 21.1159C32.75 20.385 32.3708 19.7891 32.0618 19.3832L30.8684 20.2919C31.1331 20.6396 31.25 20.8998 31.25 21.1159H32.75ZM25.4871 22.3184C27.3364 22.5321 29.2093 22.6679 31.1024 22.7224L31.1456 21.2231C29.2957 21.1698 27.4658 21.0371 25.6593 20.8283L25.4871 22.3184ZM26.7434 28.1062C26.7132 25.8709 26.5696 23.6627 26.3182 21.4872L24.8282 21.6594C25.0737 23.7846 25.214 25.9421 25.2436 28.1265L26.7434 28.1062ZM23.3832 29.0618C23.7891 29.3708 24.385 29.75 25.1159 29.75V28.25C24.8998 28.25 24.6396 28.1331 24.2919 27.8684L23.3832 29.0618ZM22.5 28.75C22.8127 28.75 23.1144 28.8571 23.3832 29.0618L24.2919 27.8684C23.7872 27.484 23.1713 27.25 22.5 27.25V28.75ZM20.75 31C20.75 29.6235 21.6557 28.75 22.5 28.75V27.25C20.5828 27.25 19.25 29.0628 19.25 31H20.75ZM22.5 33.25C21.6557 33.25 20.75 32.3765 20.75 31H19.25C19.25 32.9372 20.5828 34.75 22.5 34.75V33.25ZM23.3832 32.9382C23.1144 33.1429 22.8127 33.25 22.5 33.25V34.75C23.1713 34.75 23.7872 34.516 24.2919 34.1317L23.3832 32.9382ZM25.1159 32.25C24.385 32.25 23.7891 32.6292 23.3832 32.9382L24.2919 34.1316C24.6396 33.8669 24.8998 33.75 25.1159 33.75V32.25ZM25.7069 40.6347C26.1126 38.3988 26.4034 36.1231 26.5732 33.8138L25.0772 33.7039C24.9114 35.96 24.6272 38.1831 24.231 40.3669L25.7069 40.6347ZM31.1457 40.2233C29.0916 40.1641 27.0622 40.0071 25.0621 39.7566L24.8757 41.245C26.9233 41.5014 29.0004 41.6621 31.1025 41.7226L31.1457 40.2233ZM30.8685 39.292C31.1332 39.6397 31.2502 39.8998 31.2502 40.116H32.7502C32.7502 39.385 32.3709 38.7891 32.0619 38.3833L30.8685 39.292ZM30.2502 37.5001C30.2502 38.1714 30.4841 38.7872 30.8685 39.292L32.0619 38.3833C31.8573 38.1145 31.7502 37.8128 31.7502 37.5001H30.2502ZM34.0002 34.2501C32.0629 34.2501 30.2502 35.5829 30.2502 37.5001H31.7502C31.7502 36.6558 32.6237 35.7501 34.0002 35.7501V34.2501ZM37.7502 37.5001C37.7502 35.5829 35.9374 34.2501 34.0002 34.2501V35.7501C35.3766 35.7501 36.2502 36.6558 36.2502 37.5001H37.7502ZM37.1318 39.292C37.5162 38.7872 37.7502 38.1714 37.7502 37.5001H36.2502C36.2502 37.8128 36.1431 38.1145 35.9384 38.3833L37.1318 39.292ZM36.7502 40.116C36.7502 39.8998 36.8671 39.6397 37.1318 39.292L35.9384 38.3833C35.6294 38.7891 35.2502 39.385 35.2502 40.116H36.7502ZM43.9215 39.3107C41.5796 39.7183 39.1932 39.9971 36.7699 40.1395L36.8579 41.6369C39.3381 41.4912 41.781 41.2058 44.1787 40.7885L43.9215 39.3107ZM44.0782 33.7048C43.9236 35.8072 43.6663 37.881 43.3112 39.921L44.789 40.1782C45.1525 38.0896 45.4159 35.9667 45.5741 33.8148L44.0782 33.7048ZM43.2921 34.1317C43.6398 33.867 43.8999 33.7501 44.1161 33.7501V32.2501C43.3851 32.2501 42.7892 32.6293 42.3834 32.9383L43.2921 34.1317ZM41.5002 34.7501C42.1715 34.7501 42.7873 34.5161 43.2921 34.1317L42.3834 32.9383C42.1146 33.143 41.8128 33.2501 41.5002 33.2501V34.7501ZM38.2502 31.0001C38.2502 32.9373 39.583 34.7501 41.5002 34.7501V33.2501C40.6559 33.2501 39.7502 32.3766 39.7502 31.0001H38.2502ZM41.5002 27.2501C39.583 27.2501 38.2502 29.0628 38.2502 31.0001H39.7502C39.7502 29.6236 40.6559 28.7501 41.5002 28.7501V27.2501ZM43.2921 27.8684C42.7873 27.4841 42.1715 27.2501 41.5002 27.2501V28.7501C41.8128 28.7501 42.1146 28.8572 42.3834 29.0618L43.2921 27.8684ZM44.1161 28.2501C43.8999 28.2501 43.6398 28.1331 43.2921 27.8684L42.3834 29.0618C42.7892 29.3708 43.3851 29.7501 44.1161 29.7501V28.2501ZM43.7573 21.0625C44.0474 23.38 44.2122 25.7368 44.2446 28.1258L45.7444 28.1055C45.7113 25.6609 45.5427 23.2486 45.2457 20.8761L43.7573 21.0625ZM36.8577 22.6368C39.4956 22.4818 42.0913 22.1689 44.6354 21.7073L44.3676 20.2313C41.8827 20.6822 39.3471 20.9879 36.7697 21.1394L36.8577 22.6368ZM44.1161 29.7501C45.0161 29.7501 45.7568 29.0187 45.7444 28.1055L44.2446 28.1258C44.2454 28.1894 44.193 28.2501 44.1161 28.2501V29.7501ZM31.1025 41.7226C32.0132 41.7489 32.7502 41.0138 32.7502 40.116H31.2502C31.2502 40.1818 31.1981 40.2248 31.1457 40.2233L31.1025 41.7226ZM25.2436 28.1265C25.2444 28.1897 25.1923 28.25 25.1158 28.25L25.116 29.75C26.0155 29.7499 26.7558 29.0189 26.7434 28.1062L25.2436 28.1265ZM35.2502 40.116C35.2502 40.985 35.9778 41.6886 36.8579 41.6369L36.7699 40.1395C36.7658 40.1397 36.7644 40.1391 36.7638 40.1389C36.7626 40.1385 36.7604 40.1373 36.7578 40.1349C36.7552 40.1324 36.7533 40.1295 36.7521 40.1269C36.7512 40.1248 36.7502 40.1216 36.7502 40.116H35.2502ZM36.7697 21.1394C36.7656 21.1396 36.7642 21.139 36.7636 21.1388C36.7624 21.1384 36.7602 21.1372 36.7576 21.1348C36.755 21.1323 36.7531 21.1294 36.7519 21.1268C36.751 21.1247 36.75 21.1216 36.75 21.1159H35.25C35.25 21.9849 35.9776 22.6885 36.8577 22.6368L36.7697 21.1394ZM25.1159 33.75C25.1126 33.75 25.1071 33.7491 25.1014 33.7466C25.0963 33.7443 25.0923 33.7413 25.0891 33.738C25.086 33.7346 25.0827 33.7297 25.0802 33.7231C25.0776 33.7158 25.0769 33.7086 25.0772 33.7039L26.5732 33.8138C26.6358 32.9621 25.9581 32.25 25.1159 32.25V33.75ZM45.5741 33.8148C45.6368 32.9626 44.9587 32.2501 44.1161 32.2501V33.7501C44.1129 33.7501 44.1075 33.7492 44.1019 33.7467C44.0969 33.7445 44.0929 33.7416 44.0899 33.7383C44.0868 33.735 44.0835 33.7302 44.0811 33.7237C44.0785 33.7164 44.0778 33.7094 44.0782 33.7048L45.5741 33.8148ZM31.25 21.1159C31.25 21.1816 31.198 21.2246 31.1456 21.2231L31.1024 22.7224C32.0131 22.7487 32.75 22.0136 32.75 21.1159H31.25Z" fill="#FB7C46"/>
</svg>
