<svg width="64" height="64" viewBox="0 0 64 64" fill="none" xmlns="http://www.w3.org/2000/svg">
<rect width="64" height="64" rx="8" fill="#FFE4E6"/>
<path d="M32.5001 20.6567L32.8003 19.9695C32.6089 19.8858 32.3912 19.8858 32.1998 19.9695L32.5001 20.6567ZM46.3654 28.4449L46.5649 29.1679C46.8448 29.0906 47.055 28.8587 47.1044 28.5726C47.1538 28.2864 47.0336 27.9975 46.7958 27.8308L46.3654 28.4449ZM18.6348 28.4449L18.2043 27.8308C17.9665 27.9975 17.8463 28.2864 17.8957 28.5726C17.9451 28.8587 18.1553 29.0906 18.4352 29.1679L18.6348 28.4449ZM32.5001 33.9848L32.1466 34.6463C32.3675 34.7643 32.6327 34.7643 32.8535 34.6463L32.5001 33.9848ZM43.4753 37.9919L43.7643 38.684C44.0497 38.5649 44.2327 38.2827 44.2251 37.9735L43.4753 37.9919ZM32.5 43.8714L32.0841 44.4955C32.336 44.6634 32.664 44.6634 32.9159 44.4955L32.5 43.8714ZM21.5247 37.9919L20.7749 37.9735C20.7673 38.2827 20.9503 38.5649 21.2357 38.684L21.5247 37.9919ZM22.1791 29.5289L22.4181 28.8179L22.1791 29.5289ZM42.8209 29.5289L42.5819 28.818L42.8209 29.5289ZM25.5 31.0993L25.1042 30.4623C24.8839 30.5991 24.75 30.84 24.75 31.0993H25.5ZM32.8247 27.9338C33.1981 27.7544 33.3554 27.3064 33.1761 26.933C32.9967 26.5596 32.5486 26.4023 32.1753 26.5817L32.8247 27.9338ZM25.5 37L26.25 37V37H25.5ZM22.6265 42.1265C22.3336 42.4194 22.3336 42.8943 22.6265 43.1872C22.9194 43.4801 23.3943 43.4801 23.6872 43.1872L22.6265 42.1265ZM26.25 35C26.25 34.5858 25.9142 34.25 25.5 34.25C25.0858 34.25 24.75 34.5858 24.75 35H26.25ZM32.1998 21.344C37.0505 23.4634 41.6481 26.0543 45.9349 29.0591L46.7958 27.8308C42.4282 24.7693 37.7434 22.1292 32.8003 19.9695L32.1998 21.344ZM19.0653 29.0591C23.352 26.0543 27.9497 23.4633 32.8003 21.344L32.1998 19.9695C27.2568 22.1292 22.5719 24.7693 18.2043 27.8308L19.0653 29.0591ZM32.9159 44.4955C36.3177 42.2285 39.9478 40.2774 43.7643 38.684L43.1863 37.2998C39.2802 38.9307 35.5652 40.9275 32.0841 43.2473L32.9159 44.4955ZM21.2357 38.684C25.0522 40.2774 28.6823 42.2285 32.0841 44.4955L32.9159 43.2473C29.4348 40.9275 25.7198 38.9307 21.8137 37.2998L21.2357 38.684ZM22.2745 38.0104C22.3443 35.176 22.5629 32.3787 22.9228 29.6261L21.4354 29.4316C21.0688 32.2364 20.8461 35.0863 20.7749 37.9735L22.2745 38.0104ZM18.4352 29.1679C19.6169 29.4941 20.7855 29.8517 21.9401 30.2398L22.4181 28.8179C21.2375 28.4211 20.0426 28.0555 18.8343 27.722L18.4352 29.1679ZM21.9401 30.2398C25.4833 31.4307 28.8947 32.9088 32.1466 34.6463L32.8535 33.3234C29.5288 31.5469 26.0409 30.0357 22.4181 28.8179L21.9401 30.2398ZM42.0772 29.6261C42.4371 32.3788 42.6557 35.176 42.7255 38.0104L44.2251 37.9735C44.1539 35.0863 43.9312 32.2365 43.5646 29.4317L42.0772 29.6261ZM32.8535 34.6463C36.1054 32.9088 39.5168 31.4308 43.0599 30.2398L42.5819 28.818C38.9592 30.0357 35.4713 31.5469 32.1466 33.3234L32.8535 34.6463ZM43.0599 30.2398C44.2145 29.8517 45.3832 29.4941 46.5649 29.1679L46.1658 27.722C44.9575 28.0555 43.7626 28.4212 42.5819 28.818L43.0599 30.2398ZM25.75 35C25.75 35.1381 25.6381 35.25 25.5 35.25V36.75C26.4665 36.75 27.25 35.9665 27.25 35H25.75ZM25.5 35.25C25.3619 35.25 25.25 35.1381 25.25 35H23.75C23.75 35.9665 24.5335 36.75 25.5 36.75V35.25ZM25.25 35C25.25 34.8619 25.3619 34.75 25.5 34.75V33.25C24.5335 33.25 23.75 34.0335 23.75 35H25.25ZM25.5 34.75C25.6381 34.75 25.75 34.8619 25.75 35H27.25C27.25 34.0335 26.4665 33.25 25.5 33.25V34.75ZM25.8958 31.7363C28.1283 30.3492 30.4408 29.0789 32.8247 27.9338L32.1753 26.5817C29.7423 27.7503 27.3823 29.0467 25.1042 30.4623L25.8958 31.7363ZM24.75 31.0993V36H26.25V31.0993H24.75ZM24.75 37C24.75 38.8566 24.0423 40.7107 22.6265 42.1265L23.6872 43.1872C25.3956 41.4788 26.25 39.2382 26.25 37L24.75 37ZM26.25 37V35H24.75V37H26.25Z" fill="#F53D5D"/>
</svg>
