<svg width="223" height="46" viewBox="0 0 223 46" fill="none" xmlns="http://www.w3.org/2000/svg">
<rect width="223" height="44.4706" transform="translate(0 0.764702)" fill="white"/>
<path d="M9.41179 8.5294H14.1177V45.2353L9.41179 41V8.5294Z" fill="#FB7C46"/>
<path d="M30.5882 8.5294H25.8823V45.2353L30.5882 41V8.5294Z" fill="#FB7C46"/>
<path d="M0 0.764702H40V13.7059L35.2941 17.7059V5.47058H4.47059V17.7059L0 13.7059V0.764702Z" fill="black"/>
<path d="M17.4118 16.2941H22.1177V34.647L19.7647 37.7059L17.4118 34.647V16.2941Z" fill="black"/>
<rect width="175" height="24" transform="translate(48 11)" fill="white"/>
<path d="M49.752 31V14.2H52.344V21.4H59.4V14.2H61.992V31H59.4V23.752H52.344V31H49.752ZM70.998 31.336C69.798 31.336 68.75 31.088 67.854 30.592C66.958 30.08 66.254 29.368 65.742 28.456C65.246 27.528 64.998 26.456 64.998 25.24V24.952C64.998 23.72 65.246 22.648 65.742 21.736C66.238 20.808 66.926 20.096 67.806 19.6C68.702 19.088 69.734 18.832 70.902 18.832C72.038 18.832 73.03 19.088 73.878 19.6C74.742 20.096 75.414 20.792 75.894 21.688C76.374 22.584 76.614 23.632 76.614 24.832V25.768H67.518C67.55 26.808 67.894 27.64 68.55 28.264C69.222 28.872 70.054 29.176 71.046 29.176C71.974 29.176 72.67 28.968 73.134 28.552C73.614 28.136 73.982 27.656 74.238 27.112L76.278 28.168C76.054 28.616 75.726 29.088 75.294 29.584C74.878 30.08 74.326 30.496 73.638 30.832C72.95 31.168 72.07 31.336 70.998 31.336ZM67.542 23.872H74.094C74.03 22.976 73.71 22.28 73.134 21.784C72.558 21.272 71.806 21.016 70.878 21.016C69.95 21.016 69.19 21.272 68.598 21.784C68.022 22.28 67.67 22.976 67.542 23.872ZM81.9038 31L77.9198 19.168H80.5358L83.6797 29.176H84.0638L87.2078 19.168H89.8238L85.8398 31H81.9038ZM92.2224 31V19.168H94.6464V20.56H95.0304C95.2224 20.064 95.5264 19.704 95.9424 19.48C96.3744 19.24 96.9024 19.12 97.5264 19.12H98.9424V21.352H97.4304C96.6304 21.352 95.9744 21.576 95.4624 22.024C94.9504 22.456 94.6944 23.128 94.6944 24.04V31H92.2224ZM101.504 31V19.168H103.976V31H101.504ZM102.752 17.56C102.272 17.56 101.864 17.408 101.528 17.104C101.208 16.784 101.048 16.376 101.048 15.88C101.048 15.384 101.208 14.984 101.528 14.68C101.864 14.36 102.272 14.2 102.752 14.2C103.248 14.2 103.656 14.36 103.976 14.68C104.296 14.984 104.456 15.384 104.456 15.88C104.456 16.376 104.296 16.784 103.976 17.104C103.656 17.408 103.248 17.56 102.752 17.56ZM107.644 31V19.168H110.068V20.944H110.452C110.676 20.464 111.076 20.016 111.652 19.6C112.228 19.184 113.084 18.976 114.22 18.976C115.116 18.976 115.908 19.176 116.596 19.576C117.3 19.976 117.852 20.544 118.252 21.28C118.652 22 118.852 22.872 118.852 23.896V31H116.38V24.088C116.38 23.064 116.124 22.312 115.612 21.832C115.1 21.336 114.396 21.088 113.5 21.088C112.476 21.088 111.652 21.424 111.028 22.096C110.42 22.768 110.116 23.744 110.116 25.024V31H107.644ZM127.258 31.336C125.754 31.336 124.506 31 123.514 30.328C122.522 29.656 121.914 28.64 121.69 27.28L123.994 26.728C124.122 27.384 124.338 27.904 124.642 28.288C124.946 28.672 125.322 28.944 125.77 29.104C126.234 29.264 126.73 29.344 127.258 29.344C128.042 29.344 128.642 29.192 129.058 28.888C129.49 28.584 129.706 28.192 129.706 27.712C129.706 27.232 129.506 26.88 129.106 26.656C128.706 26.432 128.114 26.248 127.33 26.104L126.514 25.96C125.714 25.816 124.986 25.608 124.33 25.336C123.674 25.064 123.154 24.688 122.77 24.208C122.386 23.728 122.194 23.112 122.194 22.36C122.194 21.24 122.61 20.376 123.442 19.768C124.274 19.144 125.378 18.832 126.754 18.832C128.082 18.832 129.17 19.136 130.018 19.744C130.882 20.336 131.442 21.144 131.698 22.168L129.394 22.816C129.25 22.096 128.946 21.592 128.482 21.304C128.018 21 127.442 20.848 126.754 20.848C126.082 20.848 125.554 20.976 125.17 21.232C124.786 21.472 124.594 21.816 124.594 22.264C124.594 22.744 124.778 23.096 125.146 23.32C125.53 23.544 126.042 23.712 126.682 23.824L127.522 23.968C128.37 24.112 129.146 24.312 129.85 24.568C130.554 24.824 131.106 25.192 131.506 25.672C131.922 26.152 132.13 26.792 132.13 27.592C132.13 28.776 131.69 29.696 130.81 30.352C129.93 31.008 128.746 31.336 127.258 31.336ZM139.202 31C138.482 31 137.906 30.784 137.474 30.352C137.058 29.92 136.85 29.344 136.85 28.624V21.256H133.586V19.168H136.85V15.256H139.322V19.168H142.85V21.256H139.322V28.192C139.322 28.672 139.546 28.912 139.993 28.912H142.466V31H139.202ZM145.754 31V19.168H148.226V31H145.754ZM147.002 17.56C146.522 17.56 146.114 17.408 145.778 17.104C145.458 16.784 145.298 16.376 145.298 15.88C145.298 15.384 145.458 14.984 145.778 14.68C146.114 14.36 146.522 14.2 147.002 14.2C147.498 14.2 147.906 14.36 148.226 14.68C148.546 14.984 148.706 15.384 148.706 15.88C148.706 16.376 148.546 16.784 148.226 17.104C147.906 17.408 147.498 17.56 147.002 17.56ZM156.334 31C155.614 31 155.038 30.784 154.606 30.352C154.19 29.92 153.982 29.344 153.982 28.624V21.256H150.718V19.168H153.982V15.256H156.454V19.168H159.982V21.256H156.454V28.192C156.454 28.672 156.678 28.912 157.126 28.912H159.598V31H156.334ZM167.423 31.216C166.527 31.216 165.727 31.016 165.023 30.616C164.319 30.216 163.767 29.648 163.367 28.912C162.967 28.176 162.767 27.296 162.767 26.272V19.168H165.239V26.104C165.239 27.128 165.495 27.888 166.007 28.384C166.519 28.864 167.231 29.104 168.143 29.104C169.151 29.104 169.959 28.768 170.567 28.096C171.191 27.408 171.503 26.424 171.503 25.144V19.168H173.975V31H171.551V29.224H171.167C170.943 29.704 170.543 30.16 169.967 30.592C169.391 31.008 168.543 31.216 167.423 31.216ZM182.069 31C181.349 31 180.773 30.784 180.341 30.352C179.925 29.92 179.717 29.344 179.717 28.624V21.256H176.453V19.168H179.717V15.256H182.189V19.168H185.717V21.256H182.189V28.192C182.189 28.672 182.413 28.912 182.861 28.912H185.333V31H182.069ZM188.621 31V19.168H191.093V31H188.621ZM189.869 17.56C189.389 17.56 188.981 17.408 188.645 17.104C188.325 16.784 188.165 16.376 188.165 15.88C188.165 15.384 188.325 14.984 188.645 14.68C188.981 14.36 189.389 14.2 189.869 14.2C190.365 14.2 190.773 14.36 191.093 14.68C191.413 14.984 191.573 15.384 191.573 15.88C191.573 16.376 191.413 16.784 191.093 17.104C190.773 17.408 190.365 17.56 189.869 17.56ZM200.306 31.336C199.122 31.336 198.066 31.096 197.138 30.616C196.226 30.12 195.506 29.416 194.978 28.504C194.45 27.592 194.186 26.512 194.186 25.264V24.904C194.186 23.656 194.45 22.584 194.978 21.688C195.506 20.776 196.226 20.072 197.138 19.576C198.066 19.08 199.122 18.832 200.306 18.832C201.49 18.832 202.546 19.08 203.474 19.576C204.402 20.072 205.13 20.776 205.658 21.688C206.186 22.584 206.45 23.656 206.45 24.904V25.264C206.45 26.512 206.186 27.592 205.658 28.504C205.13 29.416 204.402 30.12 203.474 30.616C202.546 31.096 201.49 31.336 200.306 31.336ZM200.306 29.128C201.394 29.128 202.274 28.784 202.946 28.096C203.634 27.392 203.978 26.424 203.978 25.192V24.976C203.978 23.744 203.642 22.784 202.97 22.096C202.298 21.392 201.41 21.04 200.306 21.04C199.234 21.04 198.354 21.392 197.666 22.096C196.994 22.784 196.658 23.744 196.658 24.976V25.192C196.658 26.424 196.994 27.392 197.666 28.096C198.354 28.784 199.234 29.128 200.306 29.128ZM209.527 31V19.168H211.951V20.944H212.335C212.559 20.464 212.959 20.016 213.535 19.6C214.111 19.184 214.967 18.976 216.103 18.976C216.999 18.976 217.791 19.176 218.479 19.576C219.183 19.976 219.735 20.544 220.135 21.28C220.535 22 220.735 22.872 220.735 23.896V31H218.263V24.088C218.263 23.064 218.007 22.312 217.495 21.832C216.983 21.336 216.279 21.088 215.383 21.088C214.359 21.088 213.535 21.424 212.911 22.096C212.303 22.768 211.999 23.744 211.999 25.024V31H209.527Z" fill="#542917"/>
</svg>
