<svg width="20" height="20" viewBox="0 0 20 20" fill="none" xmlns="http://www.w3.org/2000/svg">
<g clip-path="url(#clip0_244_900)">
<path opacity="0.2" d="M10.0001 6.8748C10.0001 5.15605 11.4454 3.72636 13.1641 3.7498C13.766 3.75674 14.3531 3.93739 14.8548 4.27001C15.3565 4.60263 15.7515 5.07308 15.9922 5.6248H18.7501L16.2266 8.14823C16.0638 10.6831 14.9417 13.0607 13.0885 14.7978C11.2353 16.5349 8.7901 17.501 6.25006 17.4998C3.75006 17.4998 3.12506 16.5623 3.12506 16.5623C3.12506 16.5623 5.62506 15.6248 6.87506 13.7498C6.87506 13.7498 1.87506 11.2498 3.12506 4.3748C3.12506 4.3748 6.25006 7.4998 10.0001 8.1248V6.8748Z" fill="white"/>
<path d="M10.0001 6.8748C10.0001 5.15605 11.4454 3.72636 13.1641 3.7498C13.766 3.75674 14.3531 3.93739 14.8548 4.27001C15.3565 4.60263 15.7515 5.07308 15.9922 5.6248H18.7501L16.2266 8.14823C16.0638 10.6831 14.9417 13.0607 13.0885 14.7978C11.2353 16.5349 8.7901 17.501 6.25006 17.4998C3.75006 17.4998 3.12506 16.5623 3.12506 16.5623C3.12506 16.5623 5.62506 15.6248 6.87506 13.7498C6.87506 13.7498 1.87506 11.2498 3.12506 4.3748C3.12506 4.3748 6.25006 7.4998 10.0001 8.1248V6.8748Z" stroke="white" stroke-linecap="round" stroke-linejoin="round"/>
</g>
<defs>
<clipPath id="clip0_244_900">
<rect width="20" height="20" fill="white"/>
</clipPath>
</defs>
</svg>
